<svg xmlns="http://www.w3.org/2000/svg" width="64" height="64" viewBox="0 0 64 64"><title>colsyncproject — Recess</title><path d="M13 3H40L54 17V57Q54 61 50 61H14Q10 61 10 57V7Q10 3 13 3Z" fill="#F3F2EE" stroke="#959D9B" stroke-width="0.7"/><path d="M40 3V14Q40 17 43 17H54" fill="#DADBD6" stroke="#959D9B" stroke-width="0.7"/><rect x="15" y="19" width="34" height="31" rx="3" fill="#DADBD6"/><path d="M18 20H46" fill="none" stroke="#FFFFFF" stroke-width="0.8"/><g stroke-width="2.2" stroke-linejoin="round" stroke-linecap="round"><path d="M20 30A13 13 0 0 1 42 25M44 39A13 13 0 0 1 22 44" fill="none" stroke="#3F474B"/><path d="M37 24L44 23L43 30Z" fill="#3F474B"/><path d="M27 45L20 46L21 39Z" fill="#3F474B"/><path d="M25 31H30L32 33H39V39H25Z" fill="#8C9888" stroke="#3F474B" stroke-width="1.5"/></g><rect x="19" y="53" width="4" height="1.6" rx="0.5" fill="#8C9888"/><rect x="26" y="53" width="4" height="1.6" rx="0.5" fill="#8C9888"/><rect x="33" y="53" width="4" height="1.6" rx="0.5" fill="#8C9888"/></svg>