<svg xmlns="http://www.w3.org/2000/svg" width="16" height="16" viewBox="0 0 16 16"><title>colsyncproject — Margin</title><g transform="scale(1.0)"><path d="M3 1.5H10L13.5 5V14Q13.5 14.5 13 14.5H3Q2.5 14.5 2.5 14V2Q2.5 1.5 3 1.5Z" fill="#EEF0F0" stroke="#959D9B" stroke-width="0.7"/><path d="M10 1.5V5H13.5" fill="#D0D7D9" stroke="#959D9B" stroke-width="0.6"/><rect x="3" y="5" width="0.8" height="7" rx="0" fill="#7B929E"/></g><path d="M4 7Q5 4 10 5V4L13 6L10 8V6Q6 5 5 7Z" fill="#3E4C54"/><path d="M12 10Q11 13 6 12V13L3 11L6 9V11Q10 12 11 10Z" fill="#3E4C54"/><path d="M6 7.5H8L9 8.5H10V10H6Z" fill="#3E4C54"/><g transform="scale(1.0)"><rect x="4" y="13.3" width="1" height="0.7" rx="0" fill="#7B929E"/><rect x="6" y="13.3" width="1" height="0.7" rx="0" fill="#7B929E"/><rect x="8" y="13.3" width="1" height="0.7" rx="0" fill="#7B929E"/></g></svg>