<svg xmlns="http://www.w3.org/2000/svg" width="64" height="64" viewBox="0 0 64 64"><title>colprint — Seal</title><path d="M13 3H40L54 17V57Q54 61 50 61H14Q10 61 10 57V7Q10 3 13 3Z" fill="#F0F0EF" stroke="#959D9B" stroke-width="0.7"/><path d="M40 3V14Q40 17 43 17H54" fill="#D7D8D6" stroke="#959D9B" stroke-width="0.7"/><circle cx="32" cy="34" r="18" fill="#D7D8D6"/><g stroke-width="2.2" stroke-linejoin="round" stroke-linecap="round"><rect x="19" y="30" width="26" height="11" rx="2" fill="none" stroke="#46505B"/><path d="M24 30V23H40V30" fill="none" stroke="#46505B"/><rect x="24" y="36" width="16" height="10" rx="0.5" fill="#F0F0EF" stroke="#46505B"/><circle cx="41" cy="34" r="1" fill="#8997A9"/><path d="M28 40H36M28 43H35" fill="none" stroke="#46505B" stroke-width="1.1"/></g><rect x="19" y="52" width="18" height="1.2" rx="0.5" fill="#8997A9"/><rect x="19" y="55" width="18" height="1.2" rx="0.5" fill="#8997A9"/></svg>