<svg xmlns="http://www.w3.org/2000/svg" width="32" height="32" viewBox="0 0 32 32"><title>colphoto — Header</title><g transform="scale(2.0)"><path d="M3 1.5H10L13.5 5V14Q13.5 14.5 13 14.5H3Q2.5 14.5 2.5 14V2Q2.5 1.5 3 1.5Z" fill="#F0F0EC" stroke="#959D9B" stroke-width="0.7"/><path d="M10 1.5V5H13.5" fill="#CDD2CE" stroke="#959D9B" stroke-width="0.6"/><path d="M3 2H9.5V4H3Z" fill="#3E4643"/></g><path d="M9 14H12L13 11H19L20 14H23V23H9Z" fill="#3E4643"/><circle cx="16" cy="18" r="3.5" fill="#F0F0EC"/><circle cx="16" cy="18" r="2" fill="#3E4643"/><g transform="scale(2.0)"><rect x="4" y="12.8" width="5" height="0.55" rx="0" fill="#879D93"/><rect x="4" y="13.7" width="5" height="0.55" rx="0" fill="#879D93"/></g></svg>