<svg xmlns="http://www.w3.org/2000/svg" width="64" height="64" viewBox="0 0 64 64"><title>colsyncproject — Header</title><path d="M13 3H40L54 17V57Q54 61 50 61H14Q10 61 10 57V7Q10 3 13 3Z" fill="#F0F0EC" stroke="#959D9B" stroke-width="0.7"/><path d="M40 3V14Q40 17 43 17H54" fill="#CDD2CE" stroke="#959D9B" stroke-width="0.7"/><path d="M13 4H39V13H11V7Q11 4 13 4Z" fill="#3E4643"/><rect x="15" y="8" width="12" height="1" rx="0" fill="#879D93"/><g stroke-width="2.2" stroke-linejoin="round" stroke-linecap="round"><path d="M20 30A13 13 0 0 1 42 25M44 39A13 13 0 0 1 22 44" fill="none" stroke="#3E4643"/><path d="M37 24L44 23L43 30Z" fill="#3E4643"/><path d="M27 45L20 46L21 39Z" fill="#3E4643"/><path d="M25 31H30L32 33H39V39H25Z" fill="#879D93" stroke="#3E4643" stroke-width="1.5"/></g><rect x="19" y="53" width="4" height="1.6" rx="0.5" fill="#879D93"/><rect x="26" y="53" width="4" height="1.6" rx="0.5" fill="#879D93"/><rect x="33" y="53" width="4" height="1.6" rx="0.5" fill="#879D93"/></svg>